<?xml version="1.0" standalone="no"?>
<!DOCTYPE svg PUBLIC "-//W3C//DTD SVG 20010904//EN"
 "http://www.w3.org/TR/2001/REC-SVG-20010904/DTD/svg10.dtd">
<svg version="1.0" xmlns="http://www.w3.org/2000/svg"
 width="2106.000000pt" height="2106.000000pt" viewBox="0 0 2106.000000 2106.000000"
 preserveAspectRatio="xMidYMid meet">

<g transform="translate(0.000000,2106.000000) scale(0.100000,-0.100000)"
fill="#000000" stroke="none">
<path d="M4350 17313 c0 -27 57 -177 100 -263 84 -167 218 -336 380 -478 178
-156 310 -241 685 -442 429 -229 615 -359 840 -584 120 -121 200 -222 291
-367 111 -179 244 -403 244 -410 0 -4 28 2 63 13 51 17 97 21 254 25 l193 5
-7 27 c-11 48 -21 69 -99 203 -167 292 -295 459 -505 663 -302 293 -652 501
-1136 674 -514 184 -791 338 -1023 571 -99 99 -165 182 -232 294 -27 43 -48
74 -48 69z"/>
<path d="M3760 17102 c0 -25 62 -178 105 -260 68 -128 148 -234 265 -352 197
-198 580 -475 840 -605 243 -122 572 -326 728 -452 47 -38 95 -66 140 -82 108
-39 290 -134 387 -203 123 -87 246 -215 330 -341 75 -114 102 -137 162 -137
42 0 129 26 138 41 16 25 -208 385 -349 559 -148 184 -356 375 -556 512 -263
180 -474 281 -873 417 -292 100 -404 144 -564 225 -321 161 -549 360 -708 617
-25 40 -45 68 -45 61z"/>
<path d="M5183 15474 c-31 -31 -29 -39 27 -202 55 -158 154 -358 231 -467 83
-116 259 -293 376 -375 86 -60 204 -131 404 -240 46 -25 114 -74 155 -113 98
-92 137 -169 164 -327 61 -349 211 -560 508 -709 88 -44 145 -50 652 -61 239
-5 469 -12 510 -15 198 -16 397 -51 540 -94 86 -26 234 -35 345 -21 204 24
305 123 364 356 32 127 35 166 17 226 -27 93 -80 129 -299 205 -476 163 -849
390 -1227 747 -225 213 -390 308 -597 343 -142 24 -257 9 -453 -57 -240 -81
-263 -74 -388 115 -196 296 -488 476 -1027 630 -72 20 -156 48 -187 61 -72 30
-83 30 -115 -2z"/>
<path d="M6499 13300 c-103 -31 -238 -131 -394 -292 -183 -187 -270 -331 -350
-578 -86 -267 -119 -477 -119 -745 1 -217 18 -343 69 -520 122 -420 408 -787
825 -1058 228 -147 462 -251 1147 -508 557 -209 911 -386 1096 -548 231 -203
347 -458 347 -764 0 -299 -103 -573 -305 -811 -143 -168 -424 -320 -693 -373
-118 -23 -346 -23 -464 0 -102 21 -266 76 -352 119 -308 154 -614 464 -878
886 -97 155 -245 425 -375 682 -75 148 -94 179 -132 207 -24 19 -44 32 -46 31
-3 -6 54 -763 80 -1048 40 -443 60 -553 120 -677 85 -173 220 -224 825 -312
731 -107 1249 -84 1725 74 340 113 578 250 786 455 203 200 326 406 404 675
39 135 55 255 55 412 0 487 -218 920 -625 1238 -286 223 -637 393 -1305 630
-523 185 -826 320 -1006 448 -471 332 -627 877 -393 1376 88 188 262 403 399
492 79 52 95 69 64 69 -9 0 -48 17 -88 37 -93 49 -192 149 -280 283 -64 97
-91 131 -105 129 -3 0 -18 -4 -32 -9z"/>
<path d="M7690 12774 c502 -167 893 -438 1249 -864 159 -191 340 -450 409
-587 17 -33 43 -71 58 -82 26 -21 71 -37 78 -30 2 2 0 49 -5 104 -39 427 -184
1042 -304 1279 l-40 81 -81 27 c-229 77 -403 97 -939 108 -236 5 -448 11 -470
14 -156 20 -152 16 45 -50z"/>
<path d="M13200 11984 c-767 -55 -1374 -311 -1846 -779 -137 -136 -252 -273
-346 -416 -451 -680 -589 -1563 -379 -2424 99 -403 288 -792 532 -1091 377
-464 907 -767 1509 -861 159 -24 509 -25 670 0 467 72 901 261 1280 558 116
91 114 90 156 99 l34 8 0 -352 c0 -713 -48 -1119 -177 -1521 -172 -534 -546
-942 -999 -1090 -430 -140 -897 -15 -1217 325 -129 137 -214 276 -323 528 -64
149 -119 237 -186 297 -123 111 -305 141 -478 80 -232 -82 -389 -392 -325
-639 28 -109 81 -193 184 -297 53 -52 125 -114 161 -138 234 -152 630 -279
1050 -336 162 -22 541 -30 730 -16 296 23 582 71 806 136 816 238 1351 786
1548 1585 82 333 87 424 92 1700 3 606 9 1109 14 1139 27 152 127 265 284 322
50 18 33 18 -976 19 l-1027 0 8 -22 c11 -32 61 -54 179 -78 352 -71 550 -234
621 -511 34 -133 62 -321 68 -454 15 -353 -106 -593 -407 -807 -109 -78 -318
-184 -435 -222 -739 -239 -1523 66 -1998 777 -87 129 -222 403 -282 572 -84
234 -153 541 -187 835 -20 176 -17 669 6 845 108 853 425 1485 920 1839 232
166 478 246 755 246 379 0 708 -145 1030 -455 301 -290 530 -632 878 -1312 74
-145 136 -263 137 -263 18 0 66 25 66 34 0 26 -130 1774 -134 1814 -8 60 -32
100 -69 117 -75 35 -819 154 -1177 190 -148 15 -635 27 -750 19z"/>
</g>
</svg>
